
				HD DESI ROCKERS RELEASES
===================================================================================

Complete name                    : Tinker.Bell.3.2010.Triple.Audio.Hindi-Eng.Russian.720p.Bluray.DjVikas.mkv
Format                           : Matroska
File size                        : 1.94 GiB
Duration                         : 1h 13mn
Overall bit rate                 : 3 785 Kbps
Movie name                       : Tinker.Bell.3.2010.Triple.Audio.Hindi-Eng.Russian.720p.Bluray.DjVikas
Writing application              : AVI-Mux GUI 1.17.8, Aug 30 2008  12:36:58
Writing library                  : matroska muxer by Alexander Noe, build date Aug 30 2008

Video
ID                               : 1
Format                           : AVC
Format/Info                      : Advanced Video Codec
Codec ID                         : V_MPEG4/ISO/AVC
Duration                         : 1h 13mn
Bit rate                         : 2 622 Kbps
Width                            : 1 280 pixels
Height                           : 720 pixels
Display aspect ratio             : 16:9
Frame rate                       : 25.000 fps
Bits/(Pixel*Frame)               : 0.114
Stream size                      : 1.34 GiB (69%)
Language                         : English

Audio #1
ID                               : 2
Format                           : AC-3
Format/Info                      : Audio Coding 3
Mode extension                   : CM (complete main)
Codec ID                         : A_AC3
Duration                         : 1h 13mn
Bit rate mode                    : Constant
Bit rate                         : 320 Kbps
Channel(s)                       : 2 channels
Channel positions                : Front: L R
Sampling rate                    : 48.0 KHz
Bit depth                        : 16 bits
Stream size                      : 168 MiB (8%)
Title                            : Russian_DjVikas

Audio #2
ID                               : 3
Format                           : AC-3
Format/Info                      : Audio Coding 3
Mode extension                   : CM (complete main)
Codec ID                         : A_AC3
Duration                         : 1h 13mn
Bit rate mode                    : Constant
Bit rate                         : 448 Kbps
Channel(s)                       : 2 channels
Channel positions                : Front: L R
Sampling rate                    : 48.0 KHz
Bit depth                        : 16 bits
Stream size                      : 235 MiB (12%)
Title                            : English

Audio #3
ID                               : 4
Format                           : AC-3
Format/Info                      : Audio Coding 3
Mode extension                   : CM (complete main)
Codec ID                         : A_AC3
Duration                         : 1h 13mn
Bit rate mode                    : Constant
Bit rate                         : 320 Kbps
Channel(s)                       : 2 channels
Channel positions                : Front: L R
Sampling rate                    : 48.0 KHz
Bit depth                        : 16 bits
Stream size                      : 168 MiB (8%)
Title                            : Hindi_DjVikas

Text
ID                               : 5
Format                           : UTF-8
Codec ID                         : S_TEXT/UTF8
Codec ID/Info                    : UTF-8 Plain Text
Title                            : English

=================================================================================== 
http://img46.imageshack.us/img46/7017/tinkerbell32010tripleau.jpg 
http://img801.imageshack.us/img801/7017/tinkerbell32010tripleau.jpg 
http://img842.imageshack.us/img842/7017/tinkerbell32010tripleau.jpg 
http://img704.imageshack.us/img704/7017/tinkerbell32010tripleau.jpg 
http://img816.imageshack.us/img816/7017/tinkerbell32010tripleau.jpg 
http://img94.imageshack.us/img94/7017/tinkerbell32010tripleau.jpg 
http://img707.imageshack.us/img707/7017/tinkerbell32010tripleau.jpg 
http://img137.imageshack.us/img137/7017/tinkerbell32010tripleau.jpg 
http://img840.imageshack.us/img840/7017/tinkerbell32010tripleau.jpg 
http://img228.imageshack.us/img228/7017/tinkerbell32010tripleau.jpg


